<svg width="84" height="33" viewBox="0 0 84 33" fill="none" xmlns="http://www.w3.org/2000/svg">
<g clip-path="url(#clip0_163_303)">
<path d="M14.496 31.16C11.9573 31.16 9.74933 30.7013 7.872 29.784C5.99467 28.8453 4.55467 27.5227 3.552 25.816C2.54933 24.1093 2.048 22.1253 2.048 19.864C2.048 16.728 2.63467 13.944 3.808 11.512C5.00267 9.08 6.61333 7.20267 8.64 5.88C10.6667 4.536 12.9173 3.864 15.392 3.864C17.696 3.864 19.4453 4.46133 20.64 5.656C21.8347 6.82933 22.432 8.38667 22.432 10.328C22.432 11.6293 22.1973 12.6747 21.728 13.464C21.28 14.2533 20.6293 14.648 19.776 14.648C19.1787 14.648 18.7093 14.5093 18.368 14.232C18.0267 13.9547 17.856 13.5493 17.856 13.016C17.856 12.824 17.8987 12.472 17.984 11.96C18.112 11.32 18.176 10.808 18.176 10.424C18.176 8.48267 17.1413 7.512 15.072 7.512C13.664 7.512 12.32 7.97067 11.04 8.888C9.76 9.80533 8.72533 11.16 7.936 12.952C7.14667 14.7227 6.752 16.8347 6.752 19.288C6.752 21.848 7.46667 23.832 8.896 25.24C10.3253 26.6267 12.4373 27.32 15.232 27.32C16.6187 27.32 18.016 27.1493 19.424 26.808C20.8533 26.4453 22.432 25.9013 24.16 25.176C24.48 25.048 24.7467 24.984 24.96 24.984C25.3013 24.984 25.5573 25.112 25.728 25.368C25.8987 25.624 25.984 25.9547 25.984 26.36C25.984 27.6613 25.28 28.6213 23.872 29.24C22.3573 29.9013 20.7787 30.392 19.136 30.712C17.5147 31.0107 15.968 31.16 14.496 31.16ZM41.2335 23.864C41.5108 23.864 41.7242 23.992 41.8735 24.248C42.0442 24.504 42.1295 24.856 42.1295 25.304C42.1295 26.1573 41.9268 26.8187 41.5215 27.288C40.5402 28.4187 39.5268 29.3467 38.4815 30.072C37.4575 30.7973 36.2842 31.16 34.9615 31.16C33.8735 31.16 33.0522 30.8507 32.4975 30.232C31.9428 29.592 31.6655 28.6747 31.6655 27.48C31.6655 26.8827 31.8148 25.816 32.1135 24.28C32.3908 22.936 32.5295 22.008 32.5295 21.496C32.5295 21.1547 32.4122 20.984 32.1775 20.984C31.9002 20.984 31.5055 21.3467 30.9935 22.072C30.4815 22.776 29.9695 23.7147 29.4575 24.888C28.9455 26.0613 28.5295 27.2987 28.2095 28.6C27.8042 30.3067 26.8015 31.16 25.2015 31.16C24.5615 31.16 24.1348 30.936 23.9215 30.488C23.7295 30.0187 23.6335 29.1867 23.6335 27.992C23.6335 27.3093 23.6442 26.7653 23.6655 26.36L23.6975 23.8C23.6975 20.5147 24.0282 17.0907 24.6895 13.528C25.3722 9.96533 26.3642 6.97867 27.6655 4.568C28.9882 2.136 30.5668 0.919998 32.4015 0.919998C33.3828 0.919998 34.1722 1.34667 34.7695 2.2C35.3882 3.032 35.6975 4.12 35.6975 5.464C35.6975 7.61867 35.0682 9.85867 33.8095 12.184C32.5508 14.488 30.5028 17.1867 27.6655 20.28C27.6015 21.3893 27.5695 22.5307 27.5695 23.704C28.2735 21.8907 29.0522 20.4187 29.9055 19.288C30.7802 18.136 31.6335 17.3147 32.4655 16.824C33.3188 16.3333 34.0975 16.088 34.8015 16.088C36.1882 16.088 36.8815 16.7813 36.8815 18.168C36.8815 19 36.6468 20.504 36.1775 22.68C35.7722 24.536 35.5695 25.7627 35.5695 26.36C35.5695 27.2133 35.8788 27.64 36.4975 27.64C36.9242 27.64 37.4255 27.384 38.0015 26.872C38.5988 26.3387 39.3882 25.4853 40.3695 24.312C40.6255 24.0133 40.9135 23.864 41.2335 23.864ZM31.7295 4.088C31.3455 4.088 30.9188 4.64267 30.4495 5.752C29.9802 6.84 29.5215 8.32267 29.0735 10.2C28.6468 12.056 28.2948 14.0827 28.0175 16.28C29.3402 14.7227 30.4282 13.0267 31.2815 11.192C32.1562 9.35733 32.5935 7.69333 32.5935 6.2C32.5935 5.51733 32.5188 4.99467 32.3695 4.632C32.2202 4.26933 32.0068 4.088 31.7295 4.088ZM43.728 13.976C42.832 13.976 42.16 13.7733 41.712 13.368C41.264 12.9413 41.04 12.3547 41.04 11.608C41.04 10.8613 41.328 10.2427 41.904 9.752C42.5013 9.24 43.2373 8.984 44.112 8.984C44.9013 8.984 45.5413 9.176 46.032 9.56C46.5227 9.944 46.768 10.488 46.768 11.192C46.768 12.0453 46.4907 12.728 45.936 13.24C45.3813 13.7307 44.6453 13.976 43.728 13.976ZM43.472 31.16C42.0853 31.16 41.072 30.6693 40.432 29.688C39.8133 28.7067 39.504 27.4053 39.504 25.784C39.504 24.824 39.6213 23.5973 39.856 22.104C40.112 20.5893 40.432 19.1813 40.816 17.88C41.008 17.1973 41.264 16.728 41.584 16.472C41.904 16.216 42.416 16.088 43.12 16.088C44.208 16.088 44.752 16.4507 44.752 17.176C44.752 17.7093 44.5493 18.9467 44.144 20.888C43.632 23.2347 43.376 24.824 43.376 25.656C43.376 26.296 43.4613 26.7867 43.632 27.128C43.8027 27.4693 44.0907 27.64 44.496 27.64C44.88 27.64 45.36 27.3733 45.936 26.84C46.512 26.3067 47.28 25.464 48.24 24.312C48.496 24.0133 48.784 23.864 49.104 23.864C49.3813 23.864 49.5947 23.992 49.744 24.248C49.9147 24.504 50 24.856 50 25.304C50 26.1573 49.7973 26.8187 49.392 27.288C47.28 29.8693 45.3067 31.16 43.472 31.16ZM49.683 31.16C48.8723 31.16 48.2963 30.7333 47.955 29.88C47.635 29.0267 47.475 27.6613 47.475 25.784C47.475 23.0107 47.8697 20.376 48.659 17.88C48.851 17.2613 49.1603 16.8133 49.587 16.536C50.035 16.2373 50.6537 16.088 51.443 16.088C51.8697 16.088 52.1683 16.1413 52.339 16.248C52.5097 16.3547 52.595 16.5573 52.595 16.856C52.595 17.1973 52.435 17.9653 52.115 19.16C51.9017 20.0133 51.731 20.76 51.603 21.4C51.475 22.0187 51.3683 22.7973 51.283 23.736C51.859 22.072 52.5417 20.664 53.331 19.512C54.1417 18.36 54.963 17.5067 55.795 16.952C56.6483 16.376 57.4483 16.088 58.195 16.088C58.9417 16.088 59.4643 16.2587 59.763 16.6C60.083 16.9413 60.243 17.464 60.243 18.168C60.243 18.8507 60.0403 20.088 59.635 21.88C59.4643 22.648 59.347 23.224 59.283 23.608C60.3497 20.984 61.5337 19.0747 62.835 17.88C64.1363 16.6853 65.3523 16.088 66.483 16.088C67.8697 16.088 68.563 16.7813 68.563 18.168C68.563 19 68.3283 20.504 67.859 22.68C67.4537 24.536 67.251 25.7627 67.251 26.36C67.251 27.2133 67.5603 27.64 68.179 27.64C68.6057 27.64 69.107 27.384 69.683 26.872C70.2803 26.3387 71.0697 25.4853 72.051 24.312C72.307 24.0133 72.595 23.864 72.915 23.864C73.1923 23.864 73.4057 23.992 73.555 24.248C73.7257 24.504 73.811 24.856 73.811 25.304C73.811 26.1573 73.6083 26.8187 73.203 27.288C72.2857 28.4187 71.2937 29.3467 70.227 30.072C69.1817 30.7973 67.987 31.16 66.643 31.16C65.555 31.16 64.7337 30.8507 64.179 30.232C63.6243 29.592 63.347 28.6747 63.347 27.48C63.347 26.8827 63.4963 25.816 63.795 24.28C64.0723 22.936 64.211 22.008 64.211 21.496C64.211 21.1547 64.0937 20.984 63.859 20.984C63.5817 20.984 63.187 21.3467 62.675 22.072C62.163 22.776 61.651 23.7147 61.139 24.888C60.627 26.0613 60.211 27.2987 59.891 28.6C59.6563 29.624 59.379 30.3067 59.059 30.648C58.7603 30.9893 58.2697 31.16 57.587 31.16C56.883 31.16 56.3497 30.8293 55.987 30.168C55.6457 29.4853 55.475 28.664 55.475 27.704C55.475 26.8933 55.5817 25.72 55.795 24.184C55.9657 22.8187 56.051 21.9227 56.051 21.496C56.051 21.1547 55.9337 20.984 55.699 20.984C55.379 20.984 54.9737 21.368 54.483 22.136C53.9923 22.904 53.5123 23.8853 53.043 25.08C52.595 26.2747 52.2323 27.448 51.955 28.6C51.7203 29.6027 51.443 30.2853 51.123 30.648C50.8243 30.9893 50.3443 31.16 49.683 31.16ZM82.6795 24.824C82.9568 24.824 83.1702 24.952 83.3195 25.208C83.4902 25.464 83.5755 25.816 83.5755 26.264C83.5755 27.032 83.3942 27.6933 83.0315 28.248C82.4342 29.1653 81.6448 29.88 80.6635 30.392C79.7035 30.904 78.5515 31.16 77.2075 31.16C75.1595 31.16 73.5702 30.552 72.4395 29.336C71.3088 28.0987 70.7435 26.4347 70.7435 24.344C70.7435 22.872 71.0528 21.5067 71.6715 20.248C72.2902 18.968 73.1435 17.9547 74.2315 17.208C75.3408 16.4613 76.5888 16.088 77.9755 16.088C79.2128 16.088 80.2048 16.4613 80.9515 17.208C81.6982 17.9333 82.0715 18.9253 82.0715 20.184C82.0715 21.656 81.5382 22.9253 80.4715 23.992C79.4262 25.0373 77.6342 25.8693 75.0955 26.488C75.6075 27.4693 76.4715 27.96 77.6875 27.96C78.5622 27.96 79.2768 27.7573 79.8315 27.352C80.4075 26.9467 81.0688 26.264 81.8155 25.304C82.0715 24.984 82.3595 24.824 82.6795 24.824ZM77.4315 19.224C76.6422 19.224 75.9702 19.6827 75.4155 20.6C74.8822 21.5173 74.6155 22.6267 74.6155 23.928V23.992C75.8742 23.6933 76.8662 23.2453 77.5915 22.648C78.3168 22.0507 78.6795 21.3573 78.6795 20.568C78.6795 20.1627 78.5622 19.8427 78.3275 19.608C78.1142 19.352 77.8155 19.224 77.4315 19.224Z" fill="#75825A"/>
</g>
<defs>
<clipPath id="clip0_163_303">
<rect width="84" height="33" fill="white"/>
</clipPath>
</defs>
</svg>
